<?xml version="1.0" encoding="UTF-8"?>
<!-- Generator: Adobe Illustrator 26.1.0, SVG Export Plug-In . SVG Version: 6.00 Build 0)  -->
<svg xmlns="http://www.w3.org/2000/svg" xmlns:xlink="http://www.w3.org/1999/xlink" version="1.1" id="Layer_1" x="0px" y="0px" viewBox="0 0 195 85" style="enable-background:new 0 0 195 85;" xml:space="preserve">
<style type="text/css">
	.st0{fill:#9C9898;}
</style>
<g>
	<path class="st0" d="M165.46,45.16c-0.05,0.34-0.1,0.68-0.14,1.02c-0.03,0.23-0.13,0.35-0.36,0.36c-0.79,0.04-1.58,0.11-2.36,0.11   c-2.07,0.02-4.15,0.01-6.22,0.01c-0.13,0-0.26,0-0.42,0c0.12,1.18,0.65,2.05,1.66,2.6c0.69,0.38,1.44,0.53,2.21,0.56   c1.43,0.07,2.82-0.11,4.15-0.65c0.06-0.03,0.13-0.04,0.24-0.07c0.01,0.14,0.03,0.25,0.03,0.36c0,0.87-0.01,1.75,0.01,2.62   c0.01,0.29-0.11,0.43-0.36,0.54c-1,0.43-2.04,0.67-3.13,0.75c-1.39,0.09-2.78,0.09-4.13-0.3c-2.27-0.66-3.82-2.11-4.53-4.36   c-0.86-2.72-0.67-5.37,0.86-7.82c1.31-2.1,3.27-3.11,5.73-3.2c1.37-0.05,2.68,0.17,3.85,0.91c1.57,0.98,2.4,2.45,2.76,4.23   c0.06,0.28,0.1,0.56,0.15,0.83C165.46,44.16,165.46,44.66,165.46,45.16z M155.97,43.72c1.82-0.03,3.64,0.06,5.45-0.06   c0.13-1.4-0.98-2.58-2.43-2.65C157.37,40.94,155.96,42.18,155.97,43.72z"></path>
	<path class="st0" d="M29.54,59.98c0-11.7,0-23.4,0-35.12c4.91,0,9.8,0,14.75,0C39.38,36.6,34.48,48.3,29.58,59.99   C29.57,59.99,29.56,59.98,29.54,59.98z"></path>
	<path class="st0" d="M69.48,24.85c0,11.72,0,23.39,0,35.06c-0.02,0.01-0.04,0.02-0.06,0.02c-4.89-11.68-9.77-23.37-14.68-35.09   C59.68,24.85,64.56,24.85,69.48,24.85z"></path>
	<path class="st0" d="M140.08,38c1.13-0.3,2.23-0.36,3.35-0.3c3.26,0.17,5.96,2.62,6.43,5.84c0.31,2.13,0.02,4.15-1.15,5.99   c-1.2,1.89-2.98,3-5.12,3.54c-2.51,0.63-4.99,0.39-7.44-0.32c-0.13-0.04-0.22-0.24-0.3-0.38c-0.04-0.06-0.01-0.16-0.01-0.25   c0-6.7,0-13.4,0-20.1c0-0.5,0-0.5,0.51-0.5c1.1,0,2.2,0.01,3.31-0.01c0.33-0.01,0.43,0.09,0.43,0.42   c-0.01,1.88-0.01,3.76-0.01,5.63C140.08,37.7,140.08,37.83,140.08,38z M140.08,45.63c0,1.2,0,2.39,0,3.59   c0,0.68-0.09,0.6,0.59,0.65c1.73,0.14,3.24-0.3,4.25-1.82c0.72-1.07,0.82-2.28,0.68-3.51c-0.14-1.19-0.63-2.21-1.74-2.81   c-1.15-0.61-2.37-0.56-3.6-0.25c-0.08,0.02-0.17,0.21-0.17,0.32C140.07,43.07,140.08,44.35,140.08,45.63z"></path>
	<path class="st0" d="M111.62,37.72c0-0.17,0-0.3,0-0.43c0-1.78,0.01-3.56-0.01-5.35c0-0.33,0.1-0.43,0.43-0.43   c1.24,0.02,2.49,0.01,3.8,0.01c0,0.17,0,0.32,0,0.47c0,5.74-0.01,11.48,0.01,17.22c0,0.87,0.07,1.74,0.12,2.61   c0.01,0.19-0.02,0.31-0.21,0.39c-2.92,1.16-5.9,1.64-8.98,0.78c-2.77-0.77-4.68-3.16-4.95-6.02c-0.14-1.47-0.08-2.92,0.49-4.3   c1.04-2.54,2.99-4.02,5.6-4.7C109.12,37.67,110.34,37.64,111.62,37.72z M111.62,45.52c0-1.29-0.01-2.58,0.01-3.87   c0-0.24-0.07-0.36-0.31-0.38c-0.38-0.02-0.76-0.07-1.14-0.06c-1.95,0.06-3.47,1.23-3.92,3.08c-0.25,1.04-0.19,2.09,0.16,3.11   c0.37,1.06,1.08,1.79,2.15,2.15c0.88,0.3,1.78,0.33,2.69,0.17c0.27-0.05,0.37-0.15,0.37-0.44   C111.61,48.03,111.62,46.77,111.62,45.52z"></path>
	<path class="st0" d="M91.72,33.16c0.75,0,1.51,0.01,2.26,0c0.21,0,0.32,0.06,0.39,0.27c1.25,3.55,2.52,7.09,3.77,10.63   c1.02,2.88,2.04,5.76,3.07,8.64c0.14,0.39,0.13,0.41-0.28,0.41c-1.22,0-2.44-0.01-3.67,0.01c-0.29,0-0.43-0.11-0.52-0.38   c-0.45-1.35-0.92-2.69-1.37-4.04c-0.09-0.26-0.2-0.36-0.48-0.35c-2.12,0.01-4.24,0.01-6.36,0c-0.28,0-0.38,0.09-0.46,0.35   c-0.42,1.36-0.87,2.71-1.31,4.06c-0.08,0.25-0.22,0.36-0.5,0.35c-1.05-0.01-2.11-0.01-3.16-0.01c-0.53,0-0.58-0.06-0.41-0.55   c0.54-1.56,1.07-3.12,1.61-4.67c1.14-3.27,2.28-6.54,3.41-9.81c0.34-0.97,0.71-1.93,1-2.91c0.16-0.53,0.23-1.1,0.29-1.65   c0.03-0.29,0.14-0.36,0.4-0.36C90.19,33.17,90.96,33.16,91.72,33.16z M94.13,44.56c-0.81-2.62-1.61-5.18-2.41-7.76   c-0.8,2.6-1.59,5.17-2.38,7.76C90.93,44.56,92.49,44.56,94.13,44.56z"></path>
	<path class="st0" d="M133.39,45.49c-0.04,2-0.53,3.84-1.83,5.4c-1.17,1.42-2.71,2.21-4.53,2.45c-1.68,0.22-3.33,0.06-4.86-0.73   c-2.16-1.12-3.29-3-3.72-5.32c-0.33-1.8-0.19-3.58,0.57-5.26c1.07-2.39,2.92-3.83,5.52-4.24c1.81-0.28,3.59-0.1,5.21,0.84   c1.92,1.11,2.98,2.84,3.4,4.99C133.28,44.23,133.32,44.86,133.39,45.49z M129.02,45.57c0.01-0.83-0.11-1.64-0.42-2.42   c-0.49-1.2-1.49-1.93-2.71-1.95c-1.28-0.03-2.29,0.62-2.8,1.85c-0.68,1.63-0.67,3.29-0.01,4.92c0.51,1.25,1.6,1.95,2.89,1.92   c1.19-0.02,2.17-0.76,2.66-2.01C128.92,47.14,129.03,46.37,129.02,45.57z"></path>
	<path class="st0" d="M58.92,60.11c-0.15,0.01-0.26,0.02-0.36,0.02c-1.82,0-3.64-0.01-5.46,0.01c-0.26,0-0.38-0.09-0.47-0.32   c-0.85-2.16-1.71-4.31-2.55-6.46c-0.1-0.25-0.23-0.33-0.5-0.33c-2.02,0.01-4.05,0.01-6.07,0.01c-0.13,0-0.25,0-0.45,0   c2.16-5.08,4.29-10.1,6.46-15.2C52.67,45.3,55.79,52.69,58.92,60.11z"></path>
</g>
</svg>
