<?xml version="1.0" encoding="UTF-8"?>
<!-- Generator: Adobe Illustrator 26.1.0, SVG Export Plug-In . SVG Version: 6.00 Build 0)  -->
<svg xmlns="http://www.w3.org/2000/svg" xmlns:xlink="http://www.w3.org/1999/xlink" version="1.1" id="Layer_1" x="0px" y="0px" viewBox="0 0 195 85" style="enable-background:new 0 0 195 85;" xml:space="preserve">
<style type="text/css">
	.st0{fill:#989898;}
</style>
<g>
	<path class="st0" d="M61.36,34.3c0.9-2.32,2.54-3.59,5.06-3.63c2.54-0.03,4.08,1.36,5.05,3.61c0.15-0.15,0.19-0.3,0.25-0.44   c1.1-2.31,3.4-3.35,5.71-3.14c1.03,0.1,1.98,0.42,2.82,1.02c1.2,0.86,1.82,2.05,2.02,3.49c0.14,1.02,0.1,2.05,0.1,3.08   c0,4.33-0.01,8.65-0.01,12.98c0,0.13,0.01,0.26,0,0.39c-0.03,0.45-0.29,0.71-0.75,0.73c-0.28,0.01-0.56,0-0.83,0   c-0.93,0-1.86-0.03-2.79,0.01C77.23,52.44,77,52.03,77,51.44c0.02-3.3,0.01-6.59,0.01-9.89c0-1.21,0.07-2.41-0.04-3.62   c-0.03-0.38-0.1-0.74-0.25-1.09c-0.23-0.54-0.64-0.89-1.21-1.05c-1.45-0.41-2.84,0.34-3.28,1.78c-0.17,0.55-0.24,1.12-0.25,1.69   c-0.02,1.27-0.02,2.55-0.02,3.82c0,2.74,0,5.48,0,8.23c0,0.15,0.01,0.3-0.01,0.44c-0.05,0.41-0.32,0.65-0.77,0.66   c-0.59,0.01-1.18,0-1.76,0c-0.65,0-1.31,0.01-1.96,0c-0.58-0.01-0.83-0.25-0.85-0.84c-0.01-0.38,0-0.75,0-1.13   c0-3.04-0.01-6.07-0.01-9.11c0-0.93,0.05-1.86-0.01-2.79c-0.03-0.49-0.11-0.97-0.27-1.44c-0.3-0.85-0.88-1.37-1.78-1.45   c-0.98-0.09-1.82,0.18-2.35,1.07c-0.41,0.69-0.53,1.47-0.59,2.25c-0.04,0.45-0.04,0.91-0.04,1.37c0,3.64,0,7.28,0,10.92   c0,0.15,0.01,0.3-0.01,0.44c-0.05,0.43-0.31,0.69-0.74,0.69c-1.29,0.01-2.58,0.01-3.87,0c-0.46,0-0.71-0.28-0.73-0.74   c0-0.1,0-0.2,0-0.29c0-6.38,0-12.76,0-19.15c0-0.08,0-0.16,0-0.24c0.01-0.6,0.26-0.86,0.87-0.86c0.98-0.01,1.96,0,2.94,0   c0.15,0,0.29,0,0.44,0c0.58,0.02,0.83,0.27,0.83,0.85c0.01,0.77,0,1.53,0,2.3C61.31,34.26,61.33,34.28,61.36,34.3z"></path>
	<path class="st0" d="M97.97,49.89c-0.28,0.26-0.51,0.48-0.75,0.7c-0.93,0.84-1.95,1.54-3.19,1.83c-1.37,0.32-2.75,0.4-4.12,0.07   c-2-0.48-3.31-1.72-3.88-3.68c-0.44-1.51-0.43-3.04,0.07-4.53c0.68-2.05,2.13-3.35,4.1-4.13c1.25-0.49,2.57-0.71,3.9-0.88   c0.92-0.12,1.85-0.2,2.77-0.3c0.15-0.02,0.31,0,0.3-0.22c-0.02-0.73,0.06-1.47-0.09-2.2c-0.21-1.05-0.87-1.66-1.89-1.86   c-0.75-0.15-1.5-0.08-2.2,0.26c-0.79,0.37-1.29,0.97-1.52,1.81c-0.04,0.14-0.07,0.29-0.12,0.42c-0.16,0.37-0.4,0.5-0.82,0.46   c-1.09-0.11-2.18-0.23-3.26-0.34c-0.06-0.01-0.13-0.01-0.19-0.02c-0.56-0.1-0.78-0.42-0.66-0.98c0.46-2.18,1.68-3.78,3.69-4.77   c1.04-0.51,2.14-0.79,3.28-0.93c1.65-0.2,3.29-0.12,4.9,0.36c0.85,0.26,1.65,0.63,2.34,1.19c1.16,0.93,1.75,2.16,1.93,3.61   c0.08,0.62,0.1,1.23,0.1,1.86c0,2.45,0.02,4.9-0.01,7.34c-0.01,1.23,0.33,2.31,1.08,3.27c0.15,0.19,0.3,0.39,0.43,0.6   c0.27,0.44,0.22,0.74-0.16,1.07c-0.9,0.78-1.8,1.56-2.7,2.34c-0.52,0.45-0.85,0.45-1.37,0c-0.57-0.49-1.08-1.04-1.49-1.68   C98.28,50.34,98.14,50.15,97.97,49.89z M97.17,43.53c0-0.2,0.01-0.39,0-0.59c-0.02-0.29,0.13-0.65-0.08-0.84   c-0.18-0.16-0.53-0.03-0.8-0.02c-0.98,0.04-1.95,0.18-2.85,0.59c-0.99,0.45-1.66,1.18-1.91,2.26c-0.14,0.63-0.16,1.26-0.02,1.89   c0.28,1.3,1.21,2.02,2.49,1.92c0.59-0.05,1.1-0.28,1.55-0.65c0.65-0.54,1.05-1.23,1.32-2.02C97.14,45.26,97.18,44.4,97.17,43.53z"></path>
	<path class="st0" d="M47.02,49.93c-0.17,0.08-0.28,0.23-0.41,0.34c-0.29,0.26-0.58,0.52-0.88,0.78c-1.22,1.02-2.64,1.53-4.22,1.62   c-0.83,0.04-1.66,0.04-2.48-0.15c-2.06-0.49-3.39-1.75-3.96-3.78c-0.42-1.5-0.4-3.01,0.1-4.48c0.72-2.14,2.27-3.45,4.34-4.2   c1.17-0.42,2.4-0.63,3.63-0.78c0.92-0.12,1.85-0.21,2.78-0.3c0.24-0.02,0.35-0.09,0.34-0.35c-0.01-0.62,0.01-1.24-0.07-1.86   c-0.15-1.2-0.95-1.99-2.15-2.11c-0.49-0.05-0.98-0.04-1.46,0.1c-1.08,0.3-1.78,0.98-2.07,2.07c-0.03,0.13-0.06,0.26-0.11,0.37   c-0.16,0.35-0.39,0.48-0.78,0.44c-1.12-0.12-2.24-0.23-3.36-0.36c-0.69-0.08-0.91-0.38-0.76-1.06c0.5-2.31,1.84-3.96,4-4.85   c2.73-1.12,5.53-1.23,8.32-0.25c2.46,0.86,3.71,2.65,3.85,5.23c0.02,0.42,0.03,0.85,0.03,1.27c0,2.42,0.02,4.83-0.01,7.25   c-0.01,1.28,0.33,2.41,1.13,3.41c0.14,0.18,0.28,0.36,0.4,0.56c0.24,0.41,0.19,0.72-0.17,1.04c-0.91,0.79-1.82,1.59-2.74,2.37   c-0.5,0.43-0.83,0.42-1.34-0.01c-0.59-0.5-1.1-1.07-1.53-1.71C47.32,50.32,47.2,50.1,47.02,49.93z M46.25,43.67   c0-0.51,0-0.94,0-1.36c0-0.19-0.06-0.27-0.26-0.26c-1.14,0.04-2.28,0.12-3.36,0.56c-1.91,0.79-2.75,3.04-1.84,4.9   c0.4,0.81,1.05,1.22,1.95,1.24c0.89,0.03,1.61-0.35,2.2-0.99c0.51-0.55,0.83-1.2,1.04-1.91C46.21,45.11,46.21,44.35,46.25,43.67z"></path>
	<path class="st0" d="M149.44,34.64c0.19-0.16,0.21-0.31,0.27-0.44c0.27-0.58,0.57-1.13,0.96-1.64c0.74-0.96,1.7-1.56,2.89-1.77   c1.04-0.19,2.09-0.16,3.1,0.17c1.79,0.59,2.87,1.86,3.32,3.67c0.28,1.13,0.36,2.29,0.36,3.45c0.02,4.46,0.01,8.91,0.02,13.37   c0,0.73-0.23,0.96-0.96,0.97c-1.14,0-2.29-0.03-3.43,0.01c-0.69,0.02-0.98-0.35-0.97-0.97c0.02-3.93,0.01-7.87,0.01-11.8   c0-0.72-0.02-1.44-0.2-2.14c-0.04-0.16-0.08-0.32-0.14-0.47c-0.52-1.36-2.02-1.86-3.26-1.09c-0.47,0.29-0.81,0.7-1.04,1.2   c-0.31,0.66-0.48,1.35-0.56,2.07c-0.06,0.62-0.1,1.24-0.1,1.86c0,3.41,0,6.82,0,10.23c0,0.11,0,0.23,0,0.34   c-0.02,0.46-0.27,0.74-0.73,0.74c-1.29,0.01-2.58,0.01-3.87,0c-0.44,0-0.69-0.27-0.71-0.71c-0.01-0.1,0-0.2,0-0.29   c0-6.4-0.01-12.8-0.01-19.2c0-0.11,0-0.23,0-0.34c0.02-0.47,0.25-0.71,0.73-0.75c0.1-0.01,0.2-0.01,0.29-0.01c1.01,0,2.03,0,3.04,0   c0.08,0,0.16,0,0.24,0c0.51,0.04,0.73,0.27,0.74,0.78c0.01,0.73,0,1.47,0,2.2C149.44,34.25,149.44,34.4,149.44,34.64z"></path>
	<path class="st0" d="M123.84,41.9c0.03-2.31,0.34-4.4,1.27-6.35c0.91-1.92,2.26-3.43,4.27-4.25c3.23-1.32,7.81-0.75,10.27,3.28   c0.82,1.34,1.33,2.8,1.59,4.33c0.37,2.19,0.38,4.38-0.16,6.56c-0.48,1.92-1.32,3.65-2.75,5.05c-1.72,1.68-3.8,2.43-6.19,2.3   c-3.27-0.17-5.51-1.88-6.95-4.73c-0.76-1.52-1.13-3.15-1.27-4.84C123.88,42.74,123.86,42.23,123.84,41.9z M135.76,41.57   c0.02-0.47-0.05-1.22-0.09-1.97c-0.01-0.33-0.05-0.65-0.1-0.97c-0.11-0.81-0.25-1.61-0.57-2.37c-0.27-0.63-0.69-1.1-1.35-1.34   c-1.32-0.48-2.59,0-3.25,1.23c-0.32,0.6-0.5,1.24-0.6,1.9c-0.29,1.85-0.23,3.71-0.14,5.57c0.04,0.8,0.14,1.59,0.34,2.37   c0.17,0.65,0.39,1.28,0.81,1.82c0.34,0.44,0.77,0.76,1.33,0.85c1.08,0.17,1.96-0.17,2.58-1.1c0.32-0.48,0.52-1.01,0.66-1.57   C135.72,44.63,135.74,43.24,135.76,41.57z"></path>
	<path class="st0" d="M85.58,68.3c-11.45-0.11-21.72-3.62-30.71-10.76c-0.69-0.55-1.35-1.14-2.02-1.71   c-0.15-0.13-0.29-0.27-0.36-0.46c-0.14-0.39,0.1-0.73,0.51-0.75c0.26-0.02,0.47,0.1,0.69,0.23c2.16,1.25,4.4,2.36,6.7,3.33   c4.4,1.87,8.95,3.24,13.64,4.13c2.25,0.43,4.51,0.75,6.78,0.94c3,0.25,6,0.31,9,0.14c5.95-0.33,11.74-1.47,17.38-3.36   c1.45-0.49,2.89-1.03,4.3-1.63c0.31-0.13,0.61-0.21,0.95-0.14c0.74,0.15,1.02,0.9,0.57,1.5c-0.17,0.23-0.41,0.37-0.63,0.53   c-2.28,1.63-4.73,2.95-7.31,4.05c-3.6,1.53-7.34,2.59-11.2,3.24C91.12,68.05,88.37,68.31,85.58,68.3z"></path>
	<path class="st0" d="M114.75,35.34c-0.23,0-0.38,0-0.54,0c-1.91,0-3.82,0-5.73,0c-0.13,0-0.26,0.01-0.39,0   c-0.43-0.03-0.7-0.29-0.71-0.72c-0.02-0.95-0.02-1.89,0-2.84c0.01-0.46,0.28-0.71,0.74-0.74c0.1-0.01,0.2,0,0.29,0   c4.05,0,8.1,0,12.16,0c0.13,0,0.26-0.01,0.39,0.01c0.38,0.05,0.63,0.29,0.64,0.68c0.01,0.85,0,1.7,0,2.55c0,0.22-0.09,0.42-0.2,0.6   c-0.21,0.33-0.41,0.67-0.64,0.99c-2.13,3.05-4.27,6.09-6.41,9.14c-0.08,0.12-0.2,0.21-0.22,0.44c0.19,0,0.38,0,0.57,0   c1.86,0.01,3.67,0.29,5.41,0.98c0.41,0.16,0.8,0.36,1.19,0.57c0.44,0.24,0.68,0.61,0.69,1.11c0.01,1.01,0.02,2.02,0,3.04   c-0.01,0.64-0.49,0.9-1.09,0.6c-1.61-0.81-3.31-1.3-5.1-1.47c-2.74-0.25-5.37,0.16-7.86,1.38c-0.12,0.06-0.23,0.12-0.35,0.17   c-0.42,0.18-0.84-0.04-0.93-0.48c-0.02-0.11-0.02-0.23-0.02-0.34c0-0.98,0.01-1.96,0-2.94c-0.01-0.73,0.2-1.37,0.62-1.97   c2.39-3.41,4.77-6.82,7.15-10.24C114.52,35.71,114.61,35.56,114.75,35.34z"></path>
	<path class="st0" d="M112.28,55.9c-1.55,0-3.09,0.18-4.63,0.36c-0.23,0.03-0.46,0.07-0.68,0.04c-0.33-0.05-0.45-0.3-0.3-0.61   c0.12-0.23,0.32-0.37,0.52-0.5c1.07-0.71,2.25-1.18,3.5-1.47c2.19-0.51,4.39-0.6,6.6-0.16c0.38,0.08,0.76,0.19,1.12,0.34   c0.36,0.16,0.55,0.42,0.63,0.81c0.14,0.72,0.06,1.44-0.04,2.14c-0.32,2.13-1.02,4.14-2.16,5.99c-0.55,0.89-1.21,1.7-2,2.39   c-0.17,0.15-0.36,0.29-0.59,0.34c-0.33,0.08-0.56-0.13-0.51-0.46c0.02-0.16,0.1-0.31,0.16-0.46c0.63-1.62,1.27-3.25,1.72-4.94   c0.14-0.55,0.25-1.11,0.33-1.68c0.17-1.26-0.25-1.82-1.52-2.02C113.72,55.9,113,55.9,112.28,55.9z"></path>
</g>
</svg>
