<?xml version="1.0" encoding="UTF-8"?>
<!-- Generator: Adobe Illustrator 26.1.0, SVG Export Plug-In . SVG Version: 6.00 Build 0)  -->
<svg xmlns="http://www.w3.org/2000/svg" xmlns:xlink="http://www.w3.org/1999/xlink" version="1.1" id="Layer_1" x="0px" y="0px" viewBox="0 0 195 85" style="enable-background:new 0 0 195 85;" xml:space="preserve">
<style type="text/css">
	.st0{fill:#989898;}
</style>
<g>
	<path class="st0" d="M110.6,50.66c0.03,0.15,0.04,0.27,0.08,0.38c0.81,2.45,2.47,3.98,4.99,4.5c2.55,0.52,4.94,0.09,7.11-1.38   c0.41-0.28,0.77-0.62,1.15-0.94c0.11-0.09,0.21-0.2,0.31-0.29c0.47,0.24,3.76,2.7,4.85,3.63c-0.06,0.09-0.11,0.2-0.18,0.28   c-2.12,2.31-4.7,3.82-7.78,4.46c-1.78,0.37-3.57,0.47-5.37,0.23c-6.19-0.83-10.29-5.05-11.38-10.41c-0.52-2.54-0.43-5.07,0.5-7.51   c1.7-4.46,4.91-7.26,9.53-8.44c1.66-0.42,3.36-0.42,5.05-0.22c1.75,0.21,3.38,0.76,4.91,1.63c2.3,1.32,3.95,3.24,5.09,5.61   c0.85,1.76,1.25,3.63,1.3,5.58c0.02,0.81,0.01,1.61,0.01,2.42c0,0.12-0.03,0.24-0.05,0.36c-0.26,0.08-0.51,0.05-0.76,0.05   c-6.08,0-12.16,0-18.25,0c-0.27,0-0.54,0-0.81,0C110.83,50.62,110.73,50.64,110.6,50.66z M124.26,45.73   c-0.01-0.16-0.01-0.28-0.03-0.4c-0.15-0.79-0.5-1.49-0.99-2.11c-0.8-1.02-1.83-1.72-3.05-2.14c-1.4-0.48-2.83-0.57-4.28-0.31   c-1.31,0.23-2.49,0.74-3.49,1.63c-0.71,0.63-1.26,1.37-1.58,2.26c-0.12,0.35-0.26,0.7-0.19,1.11c0.12,0.02,0.24,0.04,0.36,0.05   C113.73,45.87,123.62,45.82,124.26,45.73z"></path>
	<path class="st0" d="M61.18,35.37c2.19,0,4.36,0,6.57,0c0.02,0.15,0.06,0.28,0.06,0.42c0.01,0.85,0,1.7,0,2.54   c0,0.16,0.01,0.32,0.02,0.55c0.12-0.08,0.18-0.11,0.23-0.16c0.1-0.11,0.18-0.23,0.27-0.34c1.8-2.16,4.1-3.36,6.91-3.54   c1.41-0.09,2.81,0.01,4.18,0.38c2.93,0.78,4.99,2.57,6.23,5.33c0.55,1.22,0.85,2.5,0.98,3.83c0.08,0.82,0.11,1.65,0.11,2.48   c0.01,4.47,0.01,8.94,0,13.4c0,0.24-0.01,0.49-0.02,0.77c-0.12,0.02-0.22,0.06-0.32,0.06c-2.07,0-4.14,0-6.21,0   c-0.08,0-0.16-0.02-0.27-0.04c-0.01-0.19-0.04-0.37-0.04-0.55c0-1.08,0-2.15,0-3.23c0-3.19,0-6.37,0-9.56   c0-0.97-0.05-1.95-0.33-2.89c-0.12-0.41-0.27-0.83-0.45-1.22c-0.65-1.4-1.74-2.28-3.23-2.67c-1.2-0.31-2.42-0.37-3.61,0   c-1.78,0.55-3.07,1.66-3.77,3.42c-0.36,0.91-0.53,1.87-0.6,2.84c-0.03,0.41-0.03,0.83-0.03,1.24c0,3.95,0,7.9,0,11.85   c0,0.25,0,0.49,0,0.77c-0.17,0.03-0.31,0.07-0.45,0.07c-1.94,0-3.89,0-5.83,0c-0.14,0-0.28-0.03-0.44-0.05   c-0.02-0.15-0.04-0.26-0.04-0.38C61.03,57.38,61.08,36.08,61.18,35.37z"></path>
	<path class="st0" d="M97.26,25.36c0,0.28,0,0.52,0,0.77c0,2.81,0,5.63,0,8.44c0,0.24-0.04,0.5,0.08,0.77c0.53,0,1.06,0.01,1.6,0.01   c0.52,0,1.03,0,1.55,0c0.53,0,1.07-0.02,1.55,0.02c0.06,0.06,0.08,0.07,0.09,0.09c0.01,0.02,0.02,0.04,0.02,0.06   c0.01,1.72,0.01,3.43,0.02,5.15c0,0.1,0,0.21-0.02,0.31c0,0.04-0.03,0.07-0.06,0.14c-0.51,0.1-1.05,0.03-1.58,0.05   c-0.52,0.01-1.03,0-1.55,0c-0.53,0-1.07-0.02-1.64,0.02c-0.02,0.18-0.06,0.34-0.06,0.5c-0.01,0.79,0,1.57,0,2.36   c0,1.92-0.01,3.85,0,5.77c0,0.7,0.03,1.41,0.06,2.11c0.02,0.48,0.1,0.95,0.27,1.4c0.25,0.71,0.73,1.2,1.45,1.41   c0.41,0.12,0.85,0.19,1.27,0.24c0.49,0.06,0.99,0.06,1.49,0.09c0.1,0.01,0.2,0.03,0.3,0.04c0.03,0.08,0.06,0.14,0.06,0.19   c0,1.94,0,3.89,0,5.83c0,0.06-0.03,0.11-0.06,0.2c-0.12,0.02-0.24,0.05-0.36,0.05c-1.53,0-3.06-0.04-4.57-0.32   c-0.88-0.16-1.73-0.41-2.54-0.8c-1.38-0.66-2.39-1.69-3.05-3.06c-0.44-0.92-0.69-1.9-0.85-2.91c-0.19-1.19-0.27-2.38-0.27-3.59   c0-2.61,0-5.21,0-7.82c0-5.59,0-11.17,0-16.76c0-0.25,0-0.49,0-0.77c0.15-0.03,0.26-0.07,0.38-0.07c1.99,0,3.97,0,5.96,0   C96.95,25.29,97.09,25.33,97.26,25.36z"></path>
	<path class="st0" d="M134.37,23.3c2.24,0,4.45,0,6.65,0c0.04,0.1,0.08,0.16,0.08,0.22c0.01,12.43,0.01,24.87,0.01,37.3   c0,0.08-0.03,0.15-0.05,0.23c-0.08,0.03-0.14,0.06-0.19,0.06c-2.11,0-4.22,0-6.33,0c-0.06,0-0.12-0.04-0.17-0.05   C134.29,60.56,134.29,23.97,134.37,23.3z"></path>
	<path class="st0" d="M57.07,61.08c-0.13,0.02-0.27,0.04-0.42,0.05c-2.47,0.06-5.65,0.03-6.23-0.06c-0.01-0.11-0.04-0.22-0.05-0.34   s0-0.25,0-0.37c0-8.06,0-16.13,0-24.19c0-0.24,0.01-0.49,0.02-0.68c0.06-0.06,0.07-0.08,0.09-0.09s0.04-0.01,0.06-0.01   c0.23-0.01,0.45-0.02,0.68-0.02c1.9,0,3.8,0.01,5.71,0.01c0.04,0,0.07,0.03,0.16,0.06c0.01,0.09,0.04,0.21,0.04,0.33   c0.01,0.17,0,0.33,0,0.5c0,8,0,16.01,0,24.01C57.13,60.52,57.18,60.79,57.07,61.08z"></path>
	<path class="st0" d="M57.19,30.75c-0.22,0.18-0.42,0.15-0.6,0.15c-1.9,0-3.8,0.01-5.7,0c-0.59,0-0.63-0.05-0.63-0.64   c-0.01-1.9-0.01-3.8,0-5.7c0-0.59,0.05-0.64,0.64-0.64c1.9-0.01,3.8-0.01,5.7,0c0.59,0,0.63,0.04,0.63,0.64c0,1.9,0,3.8,0,5.7   C57.23,30.43,57.2,30.59,57.19,30.75z"></path>
	<path class="st0" d="M146.59,61.21c-1.18,0.04-2.5-0.88-2.52-2.45c-0.02-1.55,1.22-2.51,2.45-2.53c1.22-0.02,2.5,0.89,2.52,2.46   C149.07,60.35,147.68,61.24,146.59,61.21z M144.48,58.7c-0.05,1.06,0.7,2.07,2.03,2.1c1.15,0.03,2.07-0.87,2.09-2   c0.02-1.21-0.82-2.09-2.01-2.12C145.37,56.65,144.5,57.49,144.48,58.7z"></path>
	<path class="st0" d="M147.07,59c0.21,0.37,0.4,0.71,0.59,1.05c-0.36,0.16-0.43,0.15-0.58-0.08c-0.17-0.26-0.32-0.52-0.49-0.79   c-0.1-0.16-0.22-0.24-0.46-0.15c-0.02,0.34-0.04,0.7-0.07,1.09c-0.14,0.01-0.26,0.02-0.4,0.04c-0.04-0.08-0.09-0.15-0.1-0.23   c-0.06-0.61-0.02-2.19,0.06-2.57c0.42-0.09,1.06-0.1,1.4-0.04c0.34,0.07,0.55,0.26,0.64,0.59c0.08,0.32,0.01,0.61-0.25,0.84   C147.33,58.83,147.22,58.89,147.07,59z M146.14,58.49c0.16,0.01,0.28,0.03,0.4,0.03c0.1,0,0.2-0.01,0.3-0.03   c0.21-0.05,0.31-0.18,0.31-0.39c0-0.2-0.12-0.35-0.32-0.38c-0.22-0.03-0.44-0.04-0.68,0.02C146.14,57.99,146.14,58.21,146.14,58.49   z"></path>
</g>
</svg>
