<?xml version="1.0" encoding="UTF-8"?>
<!-- Generator: Adobe Illustrator 26.1.0, SVG Export Plug-In . SVG Version: 6.00 Build 0)  -->
<svg xmlns="http://www.w3.org/2000/svg" xmlns:xlink="http://www.w3.org/1999/xlink" version="1.1" id="Layer_1" x="0px" y="0px" viewBox="0 0 195 85" style="enable-background:new 0 0 195 85;" xml:space="preserve">
<style type="text/css">
	.st0{fill:#989898;}
</style>
<g>
	<g id="Wordmark">
		<path class="st0" d="M79.03,29.4h5.27l8.95,16.2l8.95-16.2h5.15v26.61h-4.3v-20.4L95.2,49.73h-4.03l-7.85-14.12v20.4h-4.3V29.4    H79.03z"></path>
		<path class="st0" d="M121.21,56.49c-1.99,0-3.74-0.44-5.25-1.32s-2.68-2.1-3.53-3.66c-0.84-1.56-1.26-3.35-1.26-5.36    c0-2.04,0.41-3.85,1.24-5.42c0.82-1.57,1.97-2.8,3.43-3.69s3.15-1.33,5.05-1.33c1.89,0,3.51,0.45,4.88,1.34    c1.36,0.89,2.41,2.15,3.15,3.75c0.73,1.61,1.1,3.5,1.1,5.66v1.18h-14.58c0.27,1.62,0.92,2.9,1.97,3.83    c1.05,0.93,2.37,1.4,3.96,1.4c1.28,0,2.38-0.19,3.31-0.57c0.92-0.38,1.79-0.96,2.6-1.73l2.28,2.79    C127.28,55.45,124.5,56.49,121.21,56.49z M124.35,40.7c-0.9-0.92-2.08-1.38-3.54-1.38c-1.42,0-2.61,0.47-3.56,1.41    c-0.96,0.94-1.56,2.2-1.82,3.78h10.45C125.76,42.89,125.24,41.62,124.35,40.7z"></path>
		<path class="st0" d="M135.22,39.7h-3.95v-3.52h3.95v-5.82h4.14v5.82h6.01v3.52h-6.01v8.91c0,1.48,0.25,2.54,0.76,3.17    c0.51,0.63,1.37,0.95,2.6,0.95c0.54,0,1.01-0.02,1.39-0.07c0.38-0.04,0.8-0.1,1.25-0.18v3.48c-0.52,0.15-1.05,0.26-1.59,0.34    c-0.61,0.09-1.23,0.13-1.85,0.13c-4.47,0-6.71-2.45-6.71-7.34L135.22,39.7z"></path>
		<path class="st0" d="M166.96,56.01h-4.07v-2.78c-0.72,1.04-1.64,1.84-2.76,2.4s-2.38,0.85-3.8,0.85c-1.75,0-3.3-0.45-4.65-1.34    c-1.35-0.89-2.41-2.12-3.18-3.69c-0.77-1.57-1.16-3.36-1.16-5.37c0-2.03,0.39-3.82,1.18-5.38s1.87-2.78,3.26-3.67    c1.39-0.89,2.98-1.33,4.78-1.33c1.36,0,2.57,0.26,3.65,0.79c1.06,0.51,1.98,1.28,2.68,2.23v-2.55h4.07L166.96,56.01z     M162.82,43.13c-0.44-1.13-1.14-2.02-2.1-2.67s-2.06-0.98-3.32-0.98c-1.77,0-3.19,0.6-4.24,1.79c-1.05,1.19-1.58,2.8-1.58,4.83    c0,2.04,0.51,3.66,1.52,4.85c1.01,1.19,2.39,1.79,4.12,1.79c1.28,0,2.42-0.33,3.42-0.99s1.72-1.55,2.17-2.66L162.82,43.13z"></path>
	</g>
	<g id="Symbol">
		<path class="st0" d="M58.27,28.5c-3.45,0-6.15,2.6-8.6,5.91c-3.36-4.28-6.17-5.91-9.53-5.91c-6.85,0-12.11,8.92-12.11,18.36    c0,5.91,2.86,9.63,7.65,9.63c3.45,0,5.92-1.62,10.33-9.33c0,0,1.84-3.24,3.1-5.48c0.44,0.71,0.91,1.49,1.4,2.31l2.07,3.48    c4.02,6.73,6.27,9.02,10.33,9.02c4.66,0,7.26-3.78,7.26-9.81C70.17,36.8,64.8,28.5,58.27,28.5z M42.65,45.09    c-3.57,5.6-4.81,6.85-6.8,6.85c-2.05,0-3.26-1.8-3.26-5c0-6.85,3.42-13.86,7.49-13.86c2.21,0,4.05,1.27,6.87,5.32    C44.28,42.51,42.65,45.09,42.65,45.09z M56.13,44.38l-2.47-4.12c-0.67-1.09-1.31-2.09-1.93-3c2.23-3.44,4.06-5.15,6.25-5.15    c4.54,0,8.17,6.68,8.17,14.89c0,3.13-1.02,4.94-3.15,4.94C60.97,51.94,60,50.6,56.13,44.38z"></path>
	</g>
</g>
</svg>
