<?xml version="1.0" encoding="UTF-8"?>
<!-- Generator: Adobe Illustrator 26.1.0, SVG Export Plug-In . SVG Version: 6.00 Build 0)  -->
<svg xmlns="http://www.w3.org/2000/svg" xmlns:xlink="http://www.w3.org/1999/xlink" version="1.1" id="Layer_1" x="0px" y="0px" viewBox="0 0 195 85" style="enable-background:new 0 0 195 85;" xml:space="preserve">
<style type="text/css">
	.st0{fill:#989898;}
</style>
<g>
	<path class="st0" d="M35.53,44.15v4.1c3.12,0,6.12-1.2,8.33-3.34c2.21-2.14,3.46-5.06,3.46-8.08H43.1c0,1.94-0.81,3.81-2.21,5.18   C39.46,43.36,37.55,44.15,35.53,44.15z"></path>
	<path class="st0" d="M35.53,55.45c-1.99,0-3.91-0.76-5.31-2.14s-2.21-3.22-2.21-5.16s0.79-3.78,2.21-5.16   c1.4-1.38,3.32-2.14,5.31-2.14v-4.08c-1.55,0-3.07,0.29-4.47,0.86c-1.43,0.57-2.7,1.4-3.81,2.46c-1.08,1.06-1.97,2.31-2.56,3.69   c-0.59,1.38-0.88,2.85-0.91,4.35c0,1.5,0.29,2.97,0.88,4.35c0.59,1.38,1.45,2.63,2.53,3.69s2.38,1.89,3.81,2.46   s2.95,0.86,4.47,0.86h0.02v-4.03L35.53,55.45L35.53,55.45z"></path>
	<path class="st0" d="M35.53,55.45v4.08c3.1,0,6.09-1.2,8.28-3.32c2.19-2.11,3.44-5.01,3.44-8.03h-4.2c0,1.94-0.79,3.78-2.21,5.16   C39.44,54.66,37.52,55.42,35.53,55.45z"></path>
	<path class="st0" d="M35.53,32.75v4.08c3.1,0,6.09-1.2,8.28-3.32c2.19-2.14,3.44-5.01,3.44-8.03h-4.2c0,1.94-0.79,3.78-2.21,5.16   C39.44,31.96,37.52,32.75,35.53,32.75z"></path>
	<path class="st0" d="M47.3,32.75v4.08c3.1,0,6.09-1.2,8.28-3.32c2.19-2.14,3.44-5.01,3.44-8.03h-4.2c0,1.94-0.79,3.78-2.21,5.16   C51.21,31.96,49.32,32.75,47.3,32.75z"></path>
	<path class="st0" d="M78.58,42.45h2.16l0.52,1.11c0.27-0.25,0.57-0.44,0.88-0.61c0.34-0.17,0.69-0.29,1.03-0.42   c0.44-0.15,0.91-0.2,1.38-0.2c0.71,0,1.43,0.15,2.09,0.42c0.66,0.29,1.25,0.69,1.74,1.2c0.52,0.54,0.91,1.15,1.2,1.84   c0.59,1.5,0.59,3.15,0,4.64c-0.27,0.69-0.69,1.3-1.2,1.84c-0.49,0.52-1.08,0.93-1.74,1.2c-0.66,0.29-1.38,0.44-2.09,0.44   c-0.44,0-0.86-0.05-1.28-0.17c-0.32-0.1-0.64-0.22-0.96-0.37c-0.29-0.15-0.57-0.34-0.81-0.57v4.94h-2.92V42.45z M84.18,51.2   c0.39,0,0.79-0.05,1.13-0.2c0.37-0.15,0.69-0.37,0.96-0.64c0.57-0.57,0.84-1.3,0.84-2.24c0.02-0.42-0.05-0.81-0.2-1.2   c-0.15-0.39-0.37-0.74-0.66-1.03c-0.27-0.27-0.59-0.47-0.96-0.61s-0.74-0.22-1.13-0.22s-0.76,0.07-1.13,0.22s-0.69,0.34-0.96,0.61   c-0.57,0.57-0.84,1.3-0.84,2.24s0.27,1.7,0.84,2.24c0.27,0.27,0.59,0.49,0.96,0.64C83.42,51.15,83.79,51.22,84.18,51.2L84.18,51.2z    M97.03,53.93c-0.54,0-1.08-0.1-1.6-0.29c-0.47-0.17-0.91-0.47-1.25-0.84s-0.64-0.81-0.81-1.28c-0.2-0.54-0.29-1.11-0.29-1.67   v-4.82h-1.77V42.7h0.76c0.93,0,1.4-0.44,1.4-1.35v-1.6h2.56v2.73h2.56v2.58h-2.56v4.69c-0.02,0.2,0,0.39,0.07,0.59   s0.17,0.37,0.29,0.52s0.29,0.27,0.47,0.37c0.17,0.1,0.37,0.15,0.57,0.15c0.07,0,0.15,0,0.25,0s0.22,0,0.32,0   c0.07,0,0.17-0.02,0.25-0.05c0.07-0.02,0.15-0.05,0.2-0.07v2.46c-0.12,0.05-0.27,0.1-0.42,0.12C97.72,53.9,97.38,53.93,97.03,53.93   L97.03,53.93z M102.51,41.1c-0.39,0-0.79-0.12-1.08-0.34c-0.32-0.25-0.52-0.57-0.61-0.93c-0.07-0.37-0.02-0.76,0.15-1.11   s0.47-0.61,0.84-0.76c0.37-0.15,0.76-0.17,1.15-0.07c0.37,0.1,0.71,0.34,0.93,0.66s0.32,0.69,0.29,1.08   c-0.05,0.37-0.22,0.74-0.49,1.01c-0.15,0.15-0.32,0.27-0.52,0.37C102.93,41.05,102.73,41.1,102.51,41.1z M100.99,42.45h2.92V53.8   h-2.92V42.45z M106.71,42.45h2.16l0.52,1.11c0.25-0.22,0.52-0.44,0.79-0.61c0.27-0.17,0.57-0.29,0.86-0.42   c0.37-0.12,0.76-0.2,1.15-0.2c0.52-0.02,1.03,0.07,1.52,0.22c0.37,0.12,0.71,0.29,1.03,0.52c0.29,0.2,0.54,0.44,0.74,0.74   c0.27-0.29,0.59-0.54,0.93-0.74c0.34-0.2,0.71-0.37,1.11-0.52c0.44-0.15,0.91-0.25,1.4-0.22c1.28,0,2.29,0.39,3.05,1.18   s1.15,1.97,1.15,3.51v6.78h-2.92v-6.54c0.02-0.59-0.17-1.18-0.57-1.62c-0.15-0.17-0.34-0.32-0.54-0.42   c-0.2-0.1-0.44-0.17-0.66-0.17c-0.22-0.02-0.47,0-0.69,0.07s-0.42,0.17-0.59,0.32c-0.07,0.05-0.12,0.12-0.17,0.17   c-0.39,0.44-0.61,1.03-0.57,1.62v6.54h-2.92v-6.54c0.02-0.59-0.17-1.18-0.57-1.62c-0.15-0.17-0.34-0.32-0.54-0.42   c-0.2-0.1-0.44-0.17-0.66-0.17c-0.22-0.02-0.47,0-0.69,0.07s-0.42,0.17-0.59,0.32c-0.07,0.05-0.12,0.12-0.17,0.17   c-0.39,0.44-0.61,1.03-0.57,1.62v6.54h-2.92L106.71,42.45z M127.33,41.1c-0.39,0-0.79-0.12-1.08-0.34   c-0.32-0.25-0.52-0.57-0.61-0.93c-0.07-0.37-0.02-0.76,0.15-1.11c0.17-0.34,0.47-0.61,0.84-0.76c0.37-0.15,0.76-0.17,1.15-0.07   c0.37,0.1,0.71,0.34,0.93,0.66c0.22,0.32,0.32,0.69,0.29,1.08c-0.05,0.39-0.22,0.74-0.49,1.01c-0.15,0.15-0.32,0.27-0.52,0.37   C127.75,41.05,127.55,41.1,127.33,41.1L127.33,41.1z M125.81,42.45h2.92V53.8h-2.92V42.45z M130.87,51.44l5.09-6.29h-5.09v-2.7   h8.77v2.33l-5.09,6.31h5.33v2.7h-9.04v-2.36L130.87,51.44L130.87,51.44z M147.31,53.93c-0.79,0-1.55-0.15-2.26-0.47   c-0.69-0.29-1.33-0.71-1.87-1.25s-0.98-1.15-1.28-1.84c-0.32-0.71-0.47-1.47-0.47-2.26s0.15-1.55,0.47-2.26   c0.29-0.69,0.74-1.3,1.28-1.84c0.54-0.52,1.15-0.96,1.87-1.25c0.69-0.29,1.45-0.44,2.21-0.47c0.76,0,1.5,0.15,2.21,0.42   c0.66,0.27,1.28,0.69,1.77,1.18c0.52,0.54,0.93,1.15,1.2,1.84c0.29,0.76,0.44,1.55,0.44,2.36c0,0.12,0,0.25-0.02,0.39   c-0.02,0.12-0.02,0.25-0.05,0.37c-0.02,0.12-0.02,0.25-0.05,0.37h-8.13c0.12,0.54,0.42,1.03,0.86,1.4   c0.52,0.39,1.15,0.61,1.82,0.57c0.32,0,0.66-0.02,0.98-0.12c0.25-0.07,0.47-0.17,0.66-0.29c0.2-0.12,0.37-0.27,0.52-0.44h3.05   c-0.17,0.47-0.42,0.88-0.71,1.28c-0.32,0.44-0.71,0.84-1.15,1.15c-0.47,0.34-0.98,0.61-1.52,0.84   C148.56,53.83,147.95,53.93,147.31,53.93z M150.11,47.27c-0.12-0.64-0.47-1.2-0.98-1.62s-1.15-0.64-1.82-0.64   c-0.66,0-1.3,0.22-1.82,0.64s-0.86,0.98-0.98,1.62H150.11z M155.07,38.25h2.92V53.8h-2.92V38.25z M162.44,57.88   c-0.12,0-0.27,0-0.39-0.02c-0.1,0-0.22-0.02-0.32-0.05c-0.1,0-0.2-0.05-0.29-0.07V55.4c0.54,0.02,1.06-0.12,1.5-0.42   c0.34-0.29,0.64-0.64,0.81-1.06l0.25-0.61l-4.47-10.86h3.05l2.92,7.4l2.68-7.4h3.05c-0.84,2.06-1.6,3.96-2.26,5.63   c-0.29,0.71-0.57,1.43-0.86,2.11c-0.27,0.69-0.52,1.33-0.76,1.89c-0.22,0.57-0.42,1.03-0.57,1.43c-0.15,0.37-0.25,0.59-0.27,0.66   c-0.25,0.59-0.54,1.15-0.86,1.72c-0.25,0.42-0.54,0.81-0.91,1.15c-0.29,0.27-0.66,0.49-1.03,0.64   C163.3,57.81,162.86,57.88,162.44,57.88L162.44,57.88z M67.74,36.8c-1.74,0-3.44,0.49-4.91,1.45c-1.45,0.93-2.58,2.29-3.24,3.83   c-0.66,1.57-0.84,3.29-0.49,4.94c0.34,1.67,1.18,3.19,2.41,4.37c1.23,1.2,2.8,2.01,4.52,2.33c1.72,0.32,3.49,0.17,5.11-0.49   c1.62-0.64,3-1.74,3.96-3.15c0.96-1.4,1.5-3.07,1.5-4.74c0-1.13-0.22-2.24-0.66-3.27s-1.11-1.99-1.92-2.78   c-0.81-0.79-1.79-1.43-2.87-1.84C70.05,37.02,68.9,36.8,67.74,36.8z M67.74,50.95c-1.13,0.02-2.26-0.29-3.22-0.91   c-0.96-0.61-1.7-1.47-2.16-2.48c-0.44-1.01-0.57-2.14-0.37-3.22c0.22-1.08,0.74-2.09,1.55-2.87c0.79-0.79,1.82-1.33,2.95-1.55   c1.11-0.22,2.29-0.12,3.34,0.29s1.97,1.13,2.6,2.04c0.64,0.91,0.98,1.99,1.01,3.1v0.07c0,1.47-0.59,2.87-1.67,3.93   C70.72,50.34,69.27,50.93,67.74,50.95L67.74,50.95z"></path>
</g>
</svg>
