<?xml version="1.0" encoding="UTF-8"?>
<!-- Generator: Adobe Illustrator 26.1.0, SVG Export Plug-In . SVG Version: 6.00 Build 0)  -->
<svg xmlns="http://www.w3.org/2000/svg" xmlns:xlink="http://www.w3.org/1999/xlink" version="1.1" id="Layer_1" x="0px" y="0px" viewBox="0 0 195 85" style="enable-background:new 0 0 195 85;" xml:space="preserve">
<style type="text/css">
	.st0{fill:#989898;}
</style>
<g>
	<path class="st0" d="M45.51,54.02c-2.88,0-5.76,0.03-8.64-0.01c-4.38-0.06-8.01-3.82-8.07-8.28c-0.06-4.55,3.44-8.49,7.82-8.62   c3.78-0.11,7.56-0.1,11.34,0c4.24,0.12,7.74,3.96,7.8,8.37c0.06,4.33-3.36,8.18-7.56,8.51c-0.89,0.07-1.79,0.11-2.68,0.16   C45.51,54.11,45.51,54.06,45.51,54.02z M42.23,51.13c1.54,0,3.07,0.01,4.61,0c3.19-0.03,5.69-2.44,5.74-5.51   c0.05-3.04-2.44-5.57-5.62-5.63c-3.14-0.05-6.27-0.06-9.41,0c-3.19,0.06-5.62,2.57-5.58,5.65c0.04,3.05,2.56,5.46,5.75,5.49   C39.22,51.14,40.72,51.13,42.23,51.13z"></path>
	<path class="st0" d="M160.98,37.12c-0.59,0.93-1.05,1.74-1.61,2.46c-0.19,0.24-0.64,0.38-0.97,0.38c-2.88,0.03-5.77,0-8.65,0.02   c-2.45,0.01-4.51,1.34-5.33,3.4c-0.07,0.17-0.1,0.35-0.19,0.68c5.28,0,10.48,0,15.9,0c-0.67,1.04-1.18,1.91-1.79,2.72   c-0.15,0.2-0.61,0.25-0.93,0.25c-4,0.02-8.01,0.01-12.01,0.01c-0.35,0-0.7,0-1.05,0c0.11,1.67,1.84,3.43,3.8,3.89   c0.56,0.13,1.14,0.19,1.71,0.19c3.4,0.02,6.79,0.01,10.19,0.01c0.34,0,0.69,0,1.23,0c-0.62,0.97-1.12,1.81-1.69,2.6   c-0.13,0.18-0.49,0.27-0.75,0.27c-3.43,0.02-6.86,0.08-10.28-0.01c-3.84-0.1-7.35-3.5-7.7-7.32c-0.42-4.52,2.19-8.4,6.34-9.36   c0.71-0.16,1.46-0.24,2.19-0.25c3.62-0.03,7.24-0.01,10.86-0.01C160.43,37.06,160.62,37.09,160.98,37.12z"></path>
	<path class="st0" d="M60.81,40.01c0,4.69,0,9.27,0,13.92c-1.08,0-2.08,0-3.18,0c0-5.57,0-11.16,0-16.81   c0.3-0.03,0.58-0.07,0.86-0.07c4.36,0,8.72-0.02,13.08,0c2.85,0.01,4.96,1.47,5.76,3.92c1.24,3.76-1.54,7.56-5.54,7.58   c-0.37,0-0.73,0-1.18,0.22c1.99,1.68,3.98,3.36,6.17,5.21c-1.69,0-3.13,0-4.58-0.01c-0.11,0-0.23-0.1-0.33-0.18   c-3.07-2.67-6.13-5.34-9.34-8.13c0.4-0.04,0.63-0.09,0.86-0.09c2.69,0,5.39,0.01,8.08-0.01c1.66-0.01,2.87-1.11,2.97-2.66   c0.09-1.4-1.02-2.82-2.55-2.87C68.26,39.94,64.61,40.01,60.81,40.01z"></path>
	<path class="st0" d="M90.14,40.61c-0.27,0.4-0.47,0.68-0.65,0.97c-2.42,3.84-4.86,7.68-7.25,11.55c-0.43,0.7-0.89,0.97-1.69,0.9   c-0.85-0.07-1.7-0.02-2.66-0.02c0.17-0.31,0.31-0.59,0.47-0.84c3.15-4.94,6.3-9.87,9.45-14.81c1.29-2.02,3.28-2.03,4.58,0   c3.16,4.93,6.32,9.86,9.48,14.79c0.15,0.24,0.29,0.49,0.49,0.82c-1.26,0-2.45,0.07-3.63-0.05c-0.3-0.03-0.62-0.61-0.78-1.01   c-0.6-1.5-1.61-2.03-3.25-1.89c-2,0.17-4.03,0.07-6.05,0.01c-0.36-0.01-0.83-0.27-1.06-0.57c-0.55-0.7-0.98-1.48-1.56-2.39   c2.94,0,5.72,0,8.75,0C93.18,45.51,91.7,43.12,90.14,40.61z"></path>
	<path class="st0" d="M121.04,37.14c-0.6,0.93-1.09,1.78-1.68,2.56c-0.16,0.21-0.62,0.27-0.94,0.27c-2.92,0.02-5.83-0.03-8.75,0.03   c-2.39,0.04-4.2,1.15-5.17,3.35c-0.92,2.08-0.59,4.08,0.88,5.83c1.14,1.36,2.66,1.96,4.41,1.96c3.78,0.01,7.56,0,11.56,0   c-0.63,0.97-1.14,1.83-1.73,2.64c-0.13,0.18-0.51,0.24-0.77,0.24c-3.36,0.01-6.73,0.06-10.09-0.01c-3.97-0.08-7.45-3.43-7.88-7.46   c-0.46-4.29,2.31-8.29,6.42-9.23c0.65-0.15,1.33-0.23,1.99-0.23c3.68-0.02,7.37-0.01,11.05-0.01   C120.53,37.06,120.71,37.1,121.04,37.14z"></path>
	<path class="st0" d="M122.96,37.12c1.12,0,2.12,0,3.22,0c0,4.66,0,9.27,0,13.97c5.07,0,10.05,0,15.28,0   c-0.66,1.03-1.18,1.89-1.78,2.7c-0.13,0.17-0.51,0.22-0.77,0.22c-4.74,0.01-9.48,0.01-14.23,0.01c-1.05,0-1.71-0.48-1.71-1.4   C122.94,47.49,122.96,42.36,122.96,37.12z"></path>
	<path class="st0" d="M166.21,38.87c0,1.08-0.8,1.86-1.89,1.84c-1.06-0.01-1.91-0.86-1.89-1.88c0.02-1,0.95-1.91,1.93-1.89   C165.42,36.96,166.21,37.79,166.21,38.87z M165.87,38.85c0.01-0.81-0.72-1.54-1.52-1.55c-0.79,0-1.55,0.75-1.55,1.53   c0,0.81,0.72,1.53,1.53,1.54C165.14,40.38,165.86,39.66,165.87,38.85z"></path>
	<path class="st0" d="M164.9,39.8c-0.23-0.27-0.43-0.5-0.69-0.81c-0.12,0.27-0.22,0.5-0.34,0.78c-0.11-0.12-0.21-0.18-0.21-0.25   c-0.02-0.38-0.01-0.76-0.04-1.14c-0.05-0.61,0.33-0.68,0.79-0.63c0.51,0.05,0.74,0.31,0.64,0.83   C164.99,38.95,164.96,39.33,164.9,39.8z"></path>
</g>
</svg>
